<svg xmlns="http://www.w3.org/2000/svg" xmlns:xlink="http://www.w3.org/1999/xlink" width="500" zoomAndPan="magnify" viewBox="0 0 375 374.999991" height="500" preserveAspectRatio="xMidYMid meet" version="1.0"><defs><clipPath id="6b1cbc9c9d"><path d="M 0 0 L 374 0 L 374 375 L 0 375 Z M 0 0 " clip-rule="nonzero"/></clipPath><clipPath id="5e893ea40d"><path d="M 59.9375 -0.476562 L 313.457031 -0.476562 C 315.441406 -0.476562 317.417969 -0.378906 319.386719 -0.1875 C 321.359375 0.0078125 323.316406 0.296875 325.261719 0.683594 C 327.203125 1.070312 329.125 1.550781 331.019531 2.125 C 332.917969 2.699219 334.78125 3.363281 336.609375 4.121094 C 338.441406 4.878906 340.230469 5.722656 341.976562 6.65625 C 343.726562 7.585938 345.421875 8.601562 347.070312 9.703125 C 348.71875 10.800781 350.308594 11.976562 351.839844 13.234375 C 353.371094 14.488281 354.835938 15.816406 356.238281 17.214844 C 357.640625 18.613281 358.96875 20.078125 360.226562 21.605469 C 361.480469 23.136719 362.660156 24.722656 363.761719 26.367188 C 364.863281 28.011719 365.878906 29.707031 366.8125 31.449219 C 367.746094 33.195312 368.59375 34.980469 369.351562 36.808594 C 370.109375 38.636719 370.777344 40.496094 371.351562 42.390625 C 371.925781 44.285156 372.410156 46.199219 372.792969 48.140625 C 373.179688 50.082031 373.472656 52.035156 373.667969 54.003906 C 373.859375 55.972656 373.957031 57.945312 373.957031 59.925781 L 373.957031 314.585938 C 373.957031 316.566406 373.859375 318.539062 373.667969 320.507812 C 373.472656 322.476562 373.179688 324.429688 372.792969 326.371094 C 372.410156 328.3125 371.925781 330.226562 371.351562 332.121094 C 370.777344 334.015625 370.109375 335.875 369.351562 337.703125 C 368.59375 339.527344 367.746094 341.316406 366.8125 343.058594 C 365.878906 344.804688 364.863281 346.5 363.761719 348.144531 C 362.660156 349.789062 361.480469 351.375 360.226562 352.90625 C 358.96875 354.433594 357.640625 355.898438 356.238281 357.296875 C 354.835938 358.695312 353.371094 360.023438 351.839844 361.277344 C 350.308594 362.535156 348.71875 363.710938 347.070312 364.808594 C 345.421875 365.90625 343.726562 366.925781 341.976562 367.855469 C 340.230469 368.789062 338.441406 369.632812 336.609375 370.390625 C 334.78125 371.148438 332.917969 371.8125 331.019531 372.386719 C 329.125 372.960938 327.203125 373.441406 325.261719 373.828125 C 323.316406 374.214844 321.359375 374.503906 319.386719 374.699219 C 317.417969 374.890625 315.441406 374.988281 313.457031 374.988281 L 59.9375 374.988281 C 57.957031 374.988281 55.980469 374.890625 54.007812 374.699219 C 52.035156 374.503906 50.078125 374.214844 48.136719 373.828125 C 46.191406 373.441406 44.273438 372.960938 42.375 372.386719 C 40.480469 371.8125 38.617188 371.148438 36.785156 370.390625 C 34.953125 369.632812 33.164062 368.789062 31.417969 367.855469 C 29.671875 366.925781 27.972656 365.910156 26.324219 364.808594 C 24.679688 363.710938 23.089844 362.535156 21.558594 361.277344 C 20.027344 360.023438 18.558594 358.695312 17.160156 357.296875 C 15.757812 355.898438 14.429688 354.433594 13.171875 352.90625 C 11.914062 351.375 10.734375 349.789062 9.632812 348.144531 C 8.535156 346.5 7.515625 344.804688 6.582031 343.058594 C 5.648438 341.316406 4.800781 339.527344 4.042969 337.703125 C 3.285156 335.875 2.617188 334.011719 2.042969 332.121094 C 1.46875 330.226562 0.988281 328.3125 0.601562 326.371094 C 0.214844 324.429688 -0.0742188 322.476562 -0.269531 320.507812 C -0.464844 318.539062 -0.5625 316.566406 -0.5625 314.585938 L -0.5625 59.925781 C -0.5625 57.945312 -0.464844 55.972656 -0.269531 54.003906 C -0.0742188 52.035156 0.214844 50.082031 0.601562 48.140625 C 0.988281 46.199219 1.46875 44.285156 2.042969 42.390625 C 2.617188 40.496094 3.285156 38.636719 4.042969 36.808594 C 4.800781 34.980469 5.648438 33.195312 6.582031 31.449219 C 7.515625 29.707031 8.535156 28.011719 9.632812 26.367188 C 10.734375 24.722656 11.914062 23.136719 13.171875 21.605469 C 14.429688 20.078125 15.757812 18.613281 17.160156 17.214844 C 18.558594 15.816406 20.027344 14.488281 21.558594 13.234375 C 23.089844 11.976562 24.679688 10.800781 26.328125 9.703125 C 27.972656 8.601562 29.671875 7.585938 31.417969 6.65625 C 33.167969 5.722656 34.953125 4.878906 36.785156 4.121094 C 38.617188 3.363281 40.480469 2.699219 42.375 2.125 C 44.273438 1.550781 46.191406 1.070312 48.136719 0.683594 C 50.078125 0.296875 52.035156 0.0078125 54.007812 -0.1875 C 55.980469 -0.378906 57.957031 -0.476562 59.9375 -0.476562 Z M 59.9375 -0.476562 " clip-rule="nonzero"/></clipPath><linearGradient x1="255.753645" gradientTransform="matrix(2.925469, 0, 0, 2.920781, -747.257788, -1242.77347)" y1="554.196336" x2="382.744481" gradientUnits="userSpaceOnUse" y2="424.986865" id="1994f0c063"><stop stop-opacity="1" stop-color="rgb(2.69928%, 0.39978%, 20.799255%)" offset="0"/><stop stop-opacity="1" stop-color="rgb(2.867126%, 0.480652%, 20.849609%)" offset="0.0625"/><stop stop-opacity="1" stop-color="rgb(3.189087%, 0.637817%, 20.94574%)" offset="0.0703125"/><stop stop-opacity="1" stop-color="rgb(3.500366%, 0.788879%, 21.038818%)" offset="0.078125"/><stop stop-opacity="1" stop-color="rgb(3.81012%, 0.939941%, 21.131897%)" offset="0.0859375"/><stop stop-opacity="1" stop-color="rgb(4.121399%, 1.091003%, 21.224976%)" offset="0.09375"/><stop stop-opacity="1" stop-color="rgb(4.431152%, 1.243591%, 21.31958%)" offset="0.101563"/><stop stop-opacity="1" stop-color="rgb(4.742432%, 1.394653%, 21.412659%)" offset="0.109375"/><stop stop-opacity="1" stop-color="rgb(5.052185%, 1.545715%, 21.505737%)" offset="0.117188"/><stop stop-opacity="1" stop-color="rgb(5.363464%, 1.696777%, 21.598816%)" offset="0.125"/><stop stop-opacity="1" stop-color="rgb(5.674744%, 1.847839%, 21.691895%)" offset="0.132812"/><stop stop-opacity="1" stop-color="rgb(5.984497%, 1.998901%, 21.784973%)" offset="0.140625"/><stop stop-opacity="1" stop-color="rgb(6.295776%, 2.151489%, 21.878052%)" offset="0.148438"/><stop stop-opacity="1" stop-color="rgb(6.60553%, 2.302551%, 21.97113%)" offset="0.15625"/><stop stop-opacity="1" stop-color="rgb(6.916809%, 2.453613%, 22.065735%)" offset="0.164063"/><stop stop-opacity="1" stop-color="rgb(7.226562%, 2.604675%, 22.158813%)" offset="0.171875"/><stop stop-opacity="1" stop-color="rgb(7.537842%, 2.755737%, 22.251892%)" offset="0.179688"/><stop stop-opacity="1" stop-color="rgb(7.847595%, 2.908325%, 22.344971%)" offset="0.1875"/><stop stop-opacity="1" stop-color="rgb(8.158875%, 3.059387%, 22.438049%)" offset="0.195312"/><stop stop-opacity="1" stop-color="rgb(8.468628%, 3.210449%, 22.531128%)" offset="0.203125"/><stop stop-opacity="1" stop-color="rgb(8.779907%, 3.361511%, 22.624207%)" offset="0.210938"/><stop stop-opacity="1" stop-color="rgb(9.091187%, 3.512573%, 22.717285%)" offset="0.21875"/><stop stop-opacity="1" stop-color="rgb(9.40094%, 3.663635%, 22.810364%)" offset="0.226563"/><stop stop-opacity="1" stop-color="rgb(9.712219%, 3.816223%, 22.904968%)" offset="0.234375"/><stop stop-opacity="1" stop-color="rgb(10.021973%, 3.967285%, 22.998047%)" offset="0.242188"/><stop stop-opacity="1" stop-color="rgb(10.333252%, 4.118347%, 23.091125%)" offset="0.25"/><stop stop-opacity="1" stop-color="rgb(10.643005%, 4.269409%, 23.184204%)" offset="0.257813"/><stop stop-opacity="1" stop-color="rgb(10.954285%, 4.420471%, 23.277283%)" offset="0.265625"/><stop stop-opacity="1" stop-color="rgb(11.264038%, 4.571533%, 23.370361%)" offset="0.273438"/><stop stop-opacity="1" stop-color="rgb(11.575317%, 4.724121%, 23.46344%)" offset="0.28125"/><stop stop-opacity="1" stop-color="rgb(11.885071%, 4.875183%, 23.556519%)" offset="0.289063"/><stop stop-opacity="1" stop-color="rgb(12.19635%, 5.026245%, 23.651123%)" offset="0.296875"/><stop stop-opacity="1" stop-color="rgb(12.507629%, 5.177307%, 23.744202%)" offset="0.304688"/><stop stop-opacity="1" stop-color="rgb(12.817383%, 5.328369%, 23.83728%)" offset="0.3125"/><stop stop-opacity="1" stop-color="rgb(13.128662%, 5.480957%, 23.930359%)" offset="0.320313"/><stop stop-opacity="1" stop-color="rgb(13.438416%, 5.632019%, 24.023438%)" offset="0.328125"/><stop stop-opacity="1" stop-color="rgb(13.749695%, 5.783081%, 24.116516%)" offset="0.335938"/><stop stop-opacity="1" stop-color="rgb(14.059448%, 5.934143%, 24.209595%)" offset="0.34375"/><stop stop-opacity="1" stop-color="rgb(14.370728%, 6.085205%, 24.302673%)" offset="0.351563"/><stop stop-opacity="1" stop-color="rgb(14.680481%, 6.236267%, 24.397278%)" offset="0.359375"/><stop stop-opacity="1" stop-color="rgb(14.99176%, 6.388855%, 24.490356%)" offset="0.367188"/><stop stop-opacity="1" stop-color="rgb(15.301514%, 6.539917%, 24.583435%)" offset="0.375"/><stop stop-opacity="1" stop-color="rgb(15.612793%, 6.690979%, 24.676514%)" offset="0.382813"/><stop stop-opacity="1" stop-color="rgb(15.924072%, 6.842041%, 24.769592%)" offset="0.390625"/><stop stop-opacity="1" stop-color="rgb(16.233826%, 6.993103%, 24.862671%)" offset="0.398438"/><stop stop-opacity="1" stop-color="rgb(16.545105%, 7.145691%, 24.95575%)" offset="0.40625"/><stop stop-opacity="1" stop-color="rgb(16.854858%, 7.296753%, 25.048828%)" offset="0.414063"/><stop stop-opacity="1" stop-color="rgb(17.166138%, 7.447815%, 25.143433%)" offset="0.421875"/><stop stop-opacity="1" stop-color="rgb(17.475891%, 7.598877%, 25.236511%)" offset="0.429688"/><stop stop-opacity="1" stop-color="rgb(17.78717%, 7.749939%, 25.32959%)" offset="0.4375"/><stop stop-opacity="1" stop-color="rgb(18.096924%, 7.901001%, 25.422668%)" offset="0.445312"/><stop stop-opacity="1" stop-color="rgb(18.408203%, 8.053589%, 25.515747%)" offset="0.453125"/><stop stop-opacity="1" stop-color="rgb(18.717957%, 8.204651%, 25.608826%)" offset="0.460938"/><stop stop-opacity="1" stop-color="rgb(19.029236%, 8.355713%, 25.701904%)" offset="0.46875"/><stop stop-opacity="1" stop-color="rgb(19.340515%, 8.506775%, 25.794983%)" offset="0.476563"/><stop stop-opacity="1" stop-color="rgb(19.650269%, 8.657837%, 25.888062%)" offset="0.484375"/><stop stop-opacity="1" stop-color="rgb(19.961548%, 8.808899%, 25.982666%)" offset="0.492188"/><stop stop-opacity="1" stop-color="rgb(20.271301%, 8.961487%, 26.075745%)" offset="0.494581"/><stop stop-opacity="1" stop-color="rgb(20.426941%, 9.037781%, 26.123047%)" offset="0.5"/><stop stop-opacity="1" stop-color="rgb(20.582581%, 9.112549%, 26.168823%)" offset="0.505419"/><stop stop-opacity="1" stop-color="rgb(20.73822%, 9.188843%, 26.216125%)" offset="0.507813"/><stop stop-opacity="1" stop-color="rgb(20.892334%, 9.263611%, 26.261902%)" offset="0.515625"/><stop stop-opacity="1" stop-color="rgb(21.203613%, 9.414673%, 26.35498%)" offset="0.523438"/><stop stop-opacity="1" stop-color="rgb(21.513367%, 9.565735%, 26.448059%)" offset="0.53125"/><stop stop-opacity="1" stop-color="rgb(21.824646%, 9.718323%, 26.541138%)" offset="0.539063"/><stop stop-opacity="1" stop-color="rgb(22.134399%, 9.869385%, 26.634216%)" offset="0.546875"/><stop stop-opacity="1" stop-color="rgb(22.445679%, 10.020447%, 26.728821%)" offset="0.554688"/><stop stop-opacity="1" stop-color="rgb(22.756958%, 10.171509%, 26.821899%)" offset="0.5625"/><stop stop-opacity="1" stop-color="rgb(23.066711%, 10.322571%, 26.914978%)" offset="0.570312"/><stop stop-opacity="1" stop-color="rgb(23.377991%, 10.473633%, 27.008057%)" offset="0.578125"/><stop stop-opacity="1" stop-color="rgb(23.687744%, 10.626221%, 27.101135%)" offset="0.585938"/><stop stop-opacity="1" stop-color="rgb(23.999023%, 10.777283%, 27.194214%)" offset="0.59375"/><stop stop-opacity="1" stop-color="rgb(24.308777%, 10.928345%, 27.287292%)" offset="0.601562"/><stop stop-opacity="1" stop-color="rgb(24.620056%, 11.079407%, 27.380371%)" offset="0.609375"/><stop stop-opacity="1" stop-color="rgb(24.92981%, 11.230469%, 27.474976%)" offset="0.617188"/><stop stop-opacity="1" stop-color="rgb(25.241089%, 11.381531%, 27.568054%)" offset="0.625"/><stop stop-opacity="1" stop-color="rgb(25.550842%, 11.534119%, 27.661133%)" offset="0.632812"/><stop stop-opacity="1" stop-color="rgb(25.862122%, 11.685181%, 27.754211%)" offset="0.640625"/><stop stop-opacity="1" stop-color="rgb(26.173401%, 11.836243%, 27.84729%)" offset="0.648438"/><stop stop-opacity="1" stop-color="rgb(26.483154%, 11.987305%, 27.940369%)" offset="0.65625"/><stop stop-opacity="1" stop-color="rgb(26.794434%, 12.138367%, 28.033447%)" offset="0.664062"/><stop stop-opacity="1" stop-color="rgb(27.104187%, 12.290955%, 28.126526%)" offset="0.671875"/><stop stop-opacity="1" stop-color="rgb(27.415466%, 12.442017%, 28.22113%)" offset="0.679688"/><stop stop-opacity="1" stop-color="rgb(27.72522%, 12.593079%, 28.314209%)" offset="0.6875"/><stop stop-opacity="1" stop-color="rgb(28.036499%, 12.744141%, 28.407288%)" offset="0.695313"/><stop stop-opacity="1" stop-color="rgb(28.346252%, 12.895203%, 28.500366%)" offset="0.703125"/><stop stop-opacity="1" stop-color="rgb(28.657532%, 13.046265%, 28.593445%)" offset="0.710938"/><stop stop-opacity="1" stop-color="rgb(28.967285%, 13.198853%, 28.686523%)" offset="0.71875"/><stop stop-opacity="1" stop-color="rgb(29.278564%, 13.349915%, 28.779602%)" offset="0.726562"/><stop stop-opacity="1" stop-color="rgb(29.589844%, 13.500977%, 28.872681%)" offset="0.734375"/><stop stop-opacity="1" stop-color="rgb(29.899597%, 13.652039%, 28.967285%)" offset="0.742188"/><stop stop-opacity="1" stop-color="rgb(30.210876%, 13.803101%, 29.060364%)" offset="0.75"/><stop stop-opacity="1" stop-color="rgb(30.52063%, 13.955688%, 29.153442%)" offset="0.757812"/><stop stop-opacity="1" stop-color="rgb(30.831909%, 14.10675%, 29.246521%)" offset="0.765625"/><stop stop-opacity="1" stop-color="rgb(31.141663%, 14.257812%, 29.3396%)" offset="0.773438"/><stop stop-opacity="1" stop-color="rgb(31.452942%, 14.408875%, 29.432678%)" offset="0.78125"/><stop stop-opacity="1" stop-color="rgb(31.762695%, 14.559937%, 29.525757%)" offset="0.789062"/><stop stop-opacity="1" stop-color="rgb(32.073975%, 14.710999%, 29.618835%)" offset="0.796875"/><stop stop-opacity="1" stop-color="rgb(32.383728%, 14.863586%, 29.711914%)" offset="0.804688"/><stop stop-opacity="1" stop-color="rgb(32.695007%, 15.014648%, 29.806519%)" offset="0.8125"/><stop stop-opacity="1" stop-color="rgb(33.006287%, 15.16571%, 29.899597%)" offset="0.820313"/><stop stop-opacity="1" stop-color="rgb(33.31604%, 15.316772%, 29.992676%)" offset="0.828125"/><stop stop-opacity="1" stop-color="rgb(33.627319%, 15.467834%, 30.085754%)" offset="0.835938"/><stop stop-opacity="1" stop-color="rgb(33.937073%, 15.618896%, 30.178833%)" offset="0.84375"/><stop stop-opacity="1" stop-color="rgb(34.248352%, 15.771484%, 30.271912%)" offset="0.851563"/><stop stop-opacity="1" stop-color="rgb(34.558105%, 15.922546%, 30.36499%)" offset="0.859375"/><stop stop-opacity="1" stop-color="rgb(34.869385%, 16.073608%, 30.458069%)" offset="0.867188"/><stop stop-opacity="1" stop-color="rgb(35.179138%, 16.22467%, 30.552673%)" offset="0.875"/><stop stop-opacity="1" stop-color="rgb(35.490417%, 16.375732%, 30.645752%)" offset="0.882812"/><stop stop-opacity="1" stop-color="rgb(35.800171%, 16.52832%, 30.738831%)" offset="0.890625"/><stop stop-opacity="1" stop-color="rgb(36.11145%, 16.679382%, 30.831909%)" offset="0.898438"/><stop stop-opacity="1" stop-color="rgb(36.422729%, 16.830444%, 30.924988%)" offset="0.90625"/><stop stop-opacity="1" stop-color="rgb(36.732483%, 16.981506%, 31.018066%)" offset="0.914063"/><stop stop-opacity="1" stop-color="rgb(37.043762%, 17.132568%, 31.111145%)" offset="0.921875"/><stop stop-opacity="1" stop-color="rgb(37.353516%, 17.28363%, 31.204224%)" offset="0.929688"/><stop stop-opacity="1" stop-color="rgb(37.664795%, 17.436218%, 31.298828%)" offset="0.9375"/><stop stop-opacity="1" stop-color="rgb(37.908936%, 17.555237%, 31.37207%)" offset="1"/></linearGradient></defs><g clip-path="url(#6b1cbc9c9d)"><g clip-path="url(#5e893ea40d)"><path fill="url(#1994f0c063)" d="M 0 0 L 0 374.988281 L 373.957031 374.988281 L 373.957031 0 Z M 0 0 " fill-rule="nonzero"/></g></g><path fill="#ffffff" d="M 189.507812 161.128906 C 199.074219 161.128906 206.320312 159.085938 211.261719 154.898438 C 216.203125 150.714844 218.671875 144.617188 218.671875 136.519531 C 218.671875 128.523438 216.203125 122.445312 211.261719 118.292969 C 206.289062 114.035156 199.070312 111.90625 189.507812 111.90625 L 155.921875 111.90625 L 155.921875 161.132812 L 189.507812 161.132812 M 191.554688 262.855469 C 203.746094 262.855469 212.890625 260.3125 218.988281 255.222656 C 225.1875 250.132812 228.289062 242.449219 228.289062 232.167969 C 228.289062 222.09375 225.242188 214.566406 219.144531 209.582031 C 213.046875 204.496094 203.851562 201.949219 191.558594 201.949219 L 155.925781 201.949219 L 155.925781 262.859375 L 191.558594 262.859375 M 248 179.210938 C 261.03125 182.949219 271.121094 189.855469 278.269531 199.925781 C 285.414062 209.996094 288.988281 222.359375 288.988281 237.003906 C 288.988281 259.433594 281.316406 276.15625 265.972656 287.164062 C 250.628906 298.171875 227.296875 303.675781 195.976562 303.675781 L 95.234375 303.675781 L 95.234375 71.152344 L 186.363281 71.152344 C 219.046875 71.152344 242.699219 76.03125 257.304688 85.792969 C 272.019531 95.554688 279.378906 111.1875 279.378906 132.683594 C 279.378906 144.003906 276.699219 153.660156 271.335938 161.65625 C 265.976562 169.550781 258.171875 175.386719 248.003906 179.261719 " fill-opacity="1" fill-rule="nonzero"/></svg>