<svg xmlns="http://www.w3.org/2000/svg" xmlns:xlink="http://www.w3.org/1999/xlink" width="500" zoomAndPan="magnify" viewBox="0 0 375 374.999991" height="500" preserveAspectRatio="xMidYMid meet" version="1.0"><defs><clipPath id="ab86e62f38"><path d="M 18 4 L 346 4 L 346 347 L 18 347 Z M 18 4 " clip-rule="nonzero"/></clipPath><clipPath id="27e1ef2451"><path d="M 181.675781 4.054688 C 91.410156 4.054688 18.234375 29.65625 18.238281 61.238281 C 18.238281 92.820312 91.410156 118.421875 181.675781 118.421875 C 271.9375 118.421875 345.109375 92.820312 345.113281 61.238281 C 345.046875 60.074219 344.882812 58.910156 344.613281 57.75 C 344.355469 56.277344 343.933594 54.808594 343.351562 53.347656 C 332.109375 25.113281 263.148438 4.089844 181.675781 4.054688 Z M 18.238281 93.75 L 18.238281 143.105469 C 18.511719 174.617188 91.59375 200.109375 181.65625 200.113281 C 271.917969 200.113281 345.09375 174.511719 345.09375 142.929688 L 345.09375 175.441406 C 344.265625 176.195312 343.425781 176.941406 342.566406 177.652344 C 332.0625 186.339844 318.566406 193.035156 302.570312 198.632812 C 295.050781 201.265625 286.949219 203.621094 278.375 205.707031 C 280.492188 206.859375 282.132812 208.050781 283.507812 208.917969 L 283.617188 208.988281 C 283.800781 209.105469 283.707031 209.078125 283.871094 209.191406 C 283.933594 209.191406 284.054688 209.199219 284.117188 209.203125 L 285.65625 209.265625 L 287.15625 209.613281 C 290.222656 210.332031 294.859375 210.980469 300.554688 214.210938 L 300.65625 214.269531 L 300.761719 214.332031 C 314.300781 222.277344 325.097656 232.164062 333.5625 245.917969 C 341 239.378906 345.09375 232.246094 345.09375 224.78125 L 345.09375 257.289062 C 344.265625 258.046875 343.425781 258.792969 342.566406 259.503906 C 341.914062 260.042969 341.253906 260.570312 340.582031 261.09375 C 341.664062 263.449219 342.769531 265.742188 343.847656 267.789062 L 343.925781 267.941406 L 344.003906 268.097656 C 344.078125 268.246094 344.082031 268.242188 344.152344 268.382812 C 344.429688 268.488281 344.769531 268.625 345.113281 268.765625 L 345.113281 93.75 C 344.285156 94.503906 343.445312 95.25 342.582031 95.960938 C 332.082031 104.648438 318.585938 111.34375 302.585938 116.941406 C 270.589844 128.136719 228.335938 134.601562 181.675781 134.601562 C 135.011719 134.601562 92.761719 128.136719 60.761719 116.941406 C 44.761719 111.34375 31.269531 104.648438 20.765625 95.960938 C 19.90625 95.25 19.066406 94.503906 18.238281 93.75 Z M 18.238281 175.457031 L 18.238281 224.957031 C 18.511719 256.464844 91.59375 281.960938 181.65625 281.964844 C 208.117188 281.964844 233.089844 279.753906 255.199219 275.847656 C 255.070312 271.058594 255.734375 266.191406 257.101562 261.292969 C 256.796875 260.738281 256.230469 259.925781 255.984375 259.457031 L 255.949219 259.390625 L 255.917969 259.324219 C 253.464844 254.535156 252.339844 250.507812 251.414062 247.953125 L 251.539062 248.289062 C 250.945312 246.765625 250.6875 245.933594 250.488281 245.257812 C 250.125 244.734375 249.613281 243.980469 248.847656 242.945312 L 248.710938 242.761719 L 248.582031 242.574219 C 249.171875 243.421875 246.636719 240.621094 244.257812 236.484375 C 241.886719 232.359375 238.953125 224.066406 242.417969 215.660156 C 242.9375 214.402344 243.648438 213.214844 244.46875 212.09375 C 224.933594 214.820312 203.800781 216.292969 181.65625 216.292969 C 134.996094 216.292969 92.742188 209.828125 60.746094 198.632812 C 44.746094 193.035156 31.25 186.339844 20.75 177.652344 C 19.894531 176.945312 19.058594 176.207031 18.238281 175.457031 Z M 271.984375 207.816406 C 272.179688 207.894531 272.417969 208.011719 272.617188 208.09375 C 272.636719 208.101562 272.667969 208.109375 272.6875 208.121094 Z M 286.59375 211.316406 C 286.648438 211.375 287.03125 211.660156 287.070312 211.691406 C 287.226562 211.824219 287.078125 211.648438 286.59375 211.316406 Z M 18.238281 257.308594 L 18.238281 306.1875 C 18.230469 306.230469 18.226562 306.269531 18.21875 306.3125 C 18.222656 321.949219 36.179688 336.117188 65.253906 346.441406 L 65.253906 313.996094 C 65.253906 310.0625 66.179688 304.847656 69.4375 300.382812 C 72.699219 295.914062 77.410156 293.492188 80.878906 292.390625 L 81 292.351562 L 81.121094 292.316406 C 83.992188 291.457031 86.960938 290.886719 90.085938 290.777344 C 98.847656 290.46875 109.175781 296.261719 113.613281 304.160156 C 115.628906 300.453125 118.792969 296.917969 122.625 294.46875 C 99.5 291.464844 78.535156 286.710938 60.746094 280.484375 C 44.746094 274.886719 31.25 268.191406 20.75 259.503906 C 19.894531 258.796875 19.058594 258.058594 18.238281 257.308594 Z M 339.359375 266.429688 C 339.105469 266.335938 340.398438 266.835938 341.566406 267.324219 C 340.359375 266.585938 339.546875 266.5 339.359375 266.429688 Z M 308.199219 278.425781 C 307.808594 278.574219 307.410156 278.722656 307.019531 278.871094 C 308.246094 280.96875 309.511719 282.945312 310.808594 284.738281 L 311.058594 284.738281 C 310.386719 283.269531 309.714844 281.769531 309.214844 280.652344 L 309.191406 280.59375 L 309.164062 280.535156 C 308.882812 279.886719 308.554688 279.179688 308.199219 278.425781 Z M 155.09375 297.421875 C 156.019531 298.269531 156.898438 299.222656 157.695312 300.304688 C 158.726562 301.695312 159.460938 303.164062 160.074219 304.640625 L 172.171875 304.640625 L 172.171875 304.5 L 192.46875 304.5 C 193.105469 303.429688 193.769531 302.367188 194.589844 301.425781 C 195.808594 300.023438 197.109375 298.863281 198.449219 297.855469 C 192.925781 298.042969 187.324219 298.144531 181.65625 298.144531 C 172.621094 298.144531 163.757812 297.894531 155.09375 297.421875 Z M 323.765625 311.875 L 323.988281 312.234375 C 323.957031 312.1875 323.957031 312.167969 323.929688 312.121094 C 323.878906 312.035156 323.816406 311.960938 323.765625 311.875 Z M 329.363281 318.953125 L 329.363281 328.238281 L 332.636719 328.238281 C 334.109375 327 335.460938 325.738281 336.683594 324.460938 C 334.660156 323.140625 333.03125 321.890625 331.675781 320.855469 C 330.761719 320.179688 330.050781 319.566406 329.363281 318.953125 Z M 329.363281 318.953125 " clip-rule="nonzero"/></clipPath><linearGradient x1="227.992394" gradientTransform="matrix(0.89889, 0, 0, 0.898693, -168.893011, -285.649223)" y1="720.471895" x2="571.821865" gradientUnits="userSpaceOnUse" y2="322.360975" id="e3a8b4f512"><stop stop-opacity="1" stop-color="rgb(30.680847%, 31.497192%, 36.616516%)" offset="0"/><stop stop-opacity="1" stop-color="rgb(30.813599%, 31.658936%, 36.807251%)" offset="0.015625"/><stop stop-opacity="1" stop-color="rgb(31.080627%, 31.982422%, 37.191772%)" offset="0.03125"/><stop stop-opacity="1" stop-color="rgb(31.349182%, 32.305908%, 37.576294%)" offset="0.046875"/><stop stop-opacity="1" stop-color="rgb(31.616211%, 32.629395%, 37.960815%)" offset="0.0625"/><stop stop-opacity="1" stop-color="rgb(31.88324%, 32.952881%, 38.343811%)" offset="0.078125"/><stop stop-opacity="1" stop-color="rgb(32.151794%, 33.276367%, 38.728333%)" offset="0.09375"/><stop stop-opacity="1" stop-color="rgb(32.418823%, 33.599854%, 39.112854%)" offset="0.109375"/><stop stop-opacity="1" stop-color="rgb(32.685852%, 33.92334%, 39.49585%)" offset="0.125"/><stop stop-opacity="1" stop-color="rgb(32.952881%, 34.246826%, 39.880371%)" offset="0.140625"/><stop stop-opacity="1" stop-color="rgb(33.221436%, 34.570312%, 40.264893%)" offset="0.15625"/><stop stop-opacity="1" stop-color="rgb(33.488464%, 34.893799%, 40.649414%)" offset="0.171875"/><stop stop-opacity="1" stop-color="rgb(33.755493%, 35.217285%, 41.03241%)" offset="0.1875"/><stop stop-opacity="1" stop-color="rgb(34.024048%, 35.540771%, 41.416931%)" offset="0.203125"/><stop stop-opacity="1" stop-color="rgb(34.291077%, 35.864258%, 41.801453%)" offset="0.21875"/><stop stop-opacity="1" stop-color="rgb(34.558105%, 36.187744%, 42.185974%)" offset="0.234375"/><stop stop-opacity="1" stop-color="rgb(34.82666%, 36.51123%, 42.56897%)" offset="0.25"/><stop stop-opacity="1" stop-color="rgb(35.093689%, 36.834717%, 42.953491%)" offset="0.265625"/><stop stop-opacity="1" stop-color="rgb(35.360718%, 37.158203%, 43.338013%)" offset="0.28125"/><stop stop-opacity="1" stop-color="rgb(35.627747%, 37.481689%, 43.722534%)" offset="0.296875"/><stop stop-opacity="1" stop-color="rgb(35.896301%, 37.805176%, 44.10553%)" offset="0.3125"/><stop stop-opacity="1" stop-color="rgb(36.16333%, 38.128662%, 44.490051%)" offset="0.328125"/><stop stop-opacity="1" stop-color="rgb(36.430359%, 38.452148%, 44.874573%)" offset="0.34375"/><stop stop-opacity="1" stop-color="rgb(36.698914%, 38.775635%, 45.259094%)" offset="0.359375"/><stop stop-opacity="1" stop-color="rgb(36.965942%, 39.099121%, 45.64209%)" offset="0.375"/><stop stop-opacity="1" stop-color="rgb(37.232971%, 39.422607%, 46.026611%)" offset="0.390625"/><stop stop-opacity="1" stop-color="rgb(37.5%, 39.746094%, 46.411133%)" offset="0.40625"/><stop stop-opacity="1" stop-color="rgb(37.768555%, 40.06958%, 46.794128%)" offset="0.421875"/><stop stop-opacity="1" stop-color="rgb(38.035583%, 40.393066%, 47.17865%)" offset="0.4375"/><stop stop-opacity="1" stop-color="rgb(38.302612%, 40.716553%, 47.563171%)" offset="0.451871"/><stop stop-opacity="1" stop-color="rgb(38.43689%, 40.878296%, 47.755432%)" offset="0.453125"/><stop stop-opacity="1" stop-color="rgb(38.571167%, 41.040039%, 47.947693%)" offset="0.46875"/><stop stop-opacity="1" stop-color="rgb(38.838196%, 41.363525%, 48.330688%)" offset="0.484375"/><stop stop-opacity="1" stop-color="rgb(39.105225%, 41.687012%, 48.71521%)" offset="0.5"/><stop stop-opacity="1" stop-color="rgb(39.373779%, 42.010498%, 49.099731%)" offset="0.515625"/><stop stop-opacity="1" stop-color="rgb(39.640808%, 42.333984%, 49.484253%)" offset="0.53125"/><stop stop-opacity="1" stop-color="rgb(39.907837%, 42.657471%, 49.867249%)" offset="0.546875"/><stop stop-opacity="1" stop-color="rgb(40.174866%, 42.980957%, 50.25177%)" offset="0.548129"/><stop stop-opacity="1" stop-color="rgb(40.309143%, 43.1427%, 50.444031%)" offset="0.5625"/><stop stop-opacity="1" stop-color="rgb(40.44342%, 43.304443%, 50.636292%)" offset="0.578125"/><stop stop-opacity="1" stop-color="rgb(40.710449%, 43.62793%, 51.020813%)" offset="0.59375"/><stop stop-opacity="1" stop-color="rgb(40.977478%, 43.951416%, 51.403809%)" offset="0.609375"/><stop stop-opacity="1" stop-color="rgb(41.246033%, 44.274902%, 51.78833%)" offset="0.625"/><stop stop-opacity="1" stop-color="rgb(41.513062%, 44.598389%, 52.172852%)" offset="0.640625"/><stop stop-opacity="1" stop-color="rgb(41.78009%, 44.921875%, 52.555847%)" offset="0.65625"/><stop stop-opacity="1" stop-color="rgb(42.048645%, 45.245361%, 52.940369%)" offset="0.671875"/><stop stop-opacity="1" stop-color="rgb(42.315674%, 45.568848%, 53.32489%)" offset="0.6875"/><stop stop-opacity="1" stop-color="rgb(42.582703%, 45.892334%, 53.709412%)" offset="0.703125"/><stop stop-opacity="1" stop-color="rgb(42.849731%, 46.21582%, 54.092407%)" offset="0.71875"/><stop stop-opacity="1" stop-color="rgb(43.118286%, 46.539307%, 54.476929%)" offset="0.734375"/><stop stop-opacity="1" stop-color="rgb(43.385315%, 46.862793%, 54.86145%)" offset="0.75"/><stop stop-opacity="1" stop-color="rgb(43.652344%, 47.186279%, 55.245972%)" offset="0.765625"/><stop stop-opacity="1" stop-color="rgb(43.920898%, 47.509766%, 55.628967%)" offset="0.78125"/><stop stop-opacity="1" stop-color="rgb(44.187927%, 47.833252%, 56.013489%)" offset="0.796875"/><stop stop-opacity="1" stop-color="rgb(44.454956%, 48.155212%, 56.39801%)" offset="0.8125"/><stop stop-opacity="1" stop-color="rgb(44.721985%, 48.478699%, 56.782532%)" offset="0.828125"/><stop stop-opacity="1" stop-color="rgb(44.99054%, 48.802185%, 57.165527%)" offset="0.84375"/><stop stop-opacity="1" stop-color="rgb(45.257568%, 49.125671%, 57.550049%)" offset="0.859375"/><stop stop-opacity="1" stop-color="rgb(45.524597%, 49.449158%, 57.93457%)" offset="0.875"/><stop stop-opacity="1" stop-color="rgb(45.793152%, 49.772644%, 58.317566%)" offset="0.890625"/><stop stop-opacity="1" stop-color="rgb(46.060181%, 50.09613%, 58.702087%)" offset="0.90625"/><stop stop-opacity="1" stop-color="rgb(46.327209%, 50.419617%, 59.086609%)" offset="0.921875"/><stop stop-opacity="1" stop-color="rgb(46.595764%, 50.743103%, 59.47113%)" offset="0.9375"/><stop stop-opacity="1" stop-color="rgb(46.862793%, 51.066589%, 59.854126%)" offset="0.953125"/><stop stop-opacity="1" stop-color="rgb(47.129822%, 51.390076%, 60.238647%)" offset="0.96875"/><stop stop-opacity="1" stop-color="rgb(47.396851%, 51.713562%, 60.623169%)" offset="0.984375"/><stop stop-opacity="1" stop-color="rgb(47.665405%, 52.037048%, 61.00769%)" offset="1"/></linearGradient></defs><g clip-path="url(#ab86e62f38)"><g clip-path="url(#27e1ef2451)"><path fill="url(#e3a8b4f512)" d="M 18.21875 4.054688 L 18.21875 346.441406 L 345.113281 346.441406 L 345.113281 4.054688 Z M 18.21875 4.054688 " fill-rule="nonzero"/></g></g><path fill="#4e505d" d="M 81.433594 350.597656 L 90.675781 350.597656 L 90.675781 313.996094 L 105.105469 345.90625 C 106.742188 349.742188 109.085938 351.164062 113.636719 351.164062 C 118.1875 351.164062 120.390625 349.742188 122.097656 345.90625 L 136.457031 313.996094 L 136.457031 350.597656 L 145.769531 350.597656 L 145.769531 313.996094 C 145.769531 310.441406 144.347656 308.734375 141.359375 307.8125 C 134.324219 305.679688 129.632812 307.527344 127.5 312.289062 L 113.351562 343.84375 L 99.703125 312.289062 C 97.640625 307.527344 92.878906 305.679688 85.769531 307.8125 C 82.855469 308.734375 81.433594 310.441406 81.433594 313.996094 Z M 81.433594 350.597656 " fill-opacity="1" fill-rule="nonzero"/><path fill="#4e505d" d="M 153.445312 320.816406 L 162.757812 320.816406 L 162.757812 340.929688 C 162.6875 342.066406 163.113281 344.628906 168.160156 344.699219 C 170.792969 344.769531 188.207031 344.699219 188.351562 344.699219 L 188.351562 320.675781 L 197.664062 320.675781 L 197.664062 353.582031 C 197.664062 361.683594 187.640625 363.460938 182.949219 363.53125 L 153.660156 363.53125 L 153.660156 357.347656 L 183.019531 357.347656 C 188.992188 356.710938 188.28125 353.722656 188.28125 352.730469 L 188.28125 350.3125 L 168.589844 350.3125 C 159.417969 350.242188 153.515625 346.191406 153.445312 341.570312 C 153.445312 341.144531 153.660156 320.960938 153.445312 320.816406 Z M 153.445312 320.816406 " fill-opacity="1" fill-rule="nonzero"/><path fill="#4e505d" d="M 353.207031 297.503906 C 347.519531 297.363281 343.109375 297.933594 339.414062 299.496094 C 338.347656 299.921875 336.640625 299.921875 336.5 301.273438 C 337.070312 301.839844 337.140625 302.765625 337.636719 303.546875 C 338.492188 304.96875 339.984375 306.886719 341.332031 307.882812 C 342.828125 309.019531 344.320312 310.15625 345.882812 311.152344 C 348.65625 312.855469 351.785156 313.851562 354.484375 315.558594 C 356.050781 316.550781 357.613281 317.832031 359.175781 318.898438 C 359.960938 319.464844 360.457031 320.390625 361.453125 320.746094 C 361.453125 320.675781 361.453125 320.605469 361.453125 320.53125 C 360.953125 319.894531 360.8125 318.96875 360.316406 318.257812 C 359.605469 317.546875 358.894531 316.90625 358.183594 316.199219 C 356.121094 313.425781 353.5625 311.007812 350.789062 309.019531 C 348.515625 307.457031 343.539062 305.324219 342.613281 302.695312 C 342.613281 302.695312 342.542969 302.621094 342.472656 302.550781 C 344.035156 302.410156 345.882812 301.839844 347.375 301.414062 C 349.792969 300.773438 351.996094 300.917969 354.484375 300.277344 C 355.621094 299.992188 356.761719 299.636719 357.898438 299.28125 C 357.898438 299.070312 357.898438 298.855469 357.898438 298.644531 C 356.617188 297.363281 355.695312 295.65625 354.34375 294.449219 C 350.71875 291.320312 346.738281 288.265625 342.613281 285.707031 C 340.410156 284.285156 337.566406 283.363281 335.21875 282.152344 C 334.367188 281.726562 332.945312 281.515625 332.449219 280.804688 C 331.167969 279.238281 330.457031 277.179688 329.53125 275.332031 C 327.472656 271.421875 325.480469 267.085938 323.703125 262.964844 C 322.425781 260.191406 321.640625 257.421875 320.078125 254.863281 C 312.757812 242.777344 304.792969 235.457031 292.566406 228.28125 C 289.9375 226.789062 286.808594 226.148438 283.46875 225.367188 C 281.691406 225.296875 279.914062 225.152344 278.136719 225.082031 C 277 224.585938 275.859375 223.234375 274.867188 222.59375 C 270.816406 220.035156 260.363281 214.492188 257.378906 221.8125 C 255.457031 226.433594 260.222656 230.980469 261.855469 233.328125 C 263.066406 234.960938 264.628906 236.808594 265.484375 238.65625 C 265.980469 239.863281 266.121094 241.144531 266.621094 242.425781 C 267.757812 245.550781 268.824219 249.035156 270.316406 251.949219 C 271.097656 253.441406 271.953125 255.003906 272.945312 256.355469 C 273.515625 257.136719 274.511719 257.492188 274.722656 258.769531 C 273.730469 260.191406 273.65625 262.324219 273.089844 264.101562 C 270.53125 272.132812 271.523438 282.082031 275.148438 287.980469 C 276.289062 289.757812 278.988281 293.667969 282.613281 292.175781 C 285.8125 290.894531 285.101562 286.84375 286.027344 283.289062 C 286.242188 282.4375 286.097656 281.871094 286.523438 281.300781 C 286.523438 281.371094 286.523438 281.441406 286.523438 281.441406 C 287.519531 283.433594 288.515625 285.351562 289.4375 287.34375 C 291.644531 290.824219 295.480469 294.449219 298.679688 296.867188 C 300.386719 298.144531 301.738281 300.347656 303.871094 301.128906 C 303.871094 301.058594 303.871094 300.988281 303.871094 300.917969 C 303.800781 300.917969 303.800781 300.917969 303.726562 300.917969 C 303.300781 300.277344 302.660156 299.992188 302.09375 299.496094 C 300.8125 298.214844 299.390625 296.652344 298.394531 295.230469 C 295.410156 291.25 292.78125 286.84375 290.433594 282.296875 C 289.296875 280.09375 288.300781 277.675781 287.378906 275.472656 C 286.949219 274.621094 286.949219 273.339844 286.238281 272.914062 C 285.171875 274.476562 283.609375 275.828125 282.828125 277.746094 C 281.476562 280.804688 281.335938 284.570312 280.835938 288.480469 C 280.554688 288.550781 280.695312 288.480469 280.554688 288.621094 C 278.277344 288.050781 277.496094 285.707031 276.644531 283.71875 C 274.511719 278.671875 274.15625 270.570312 276.003906 264.742188 C 276.5 263.25 278.632812 258.558594 277.78125 257.136719 C 277.355469 255.785156 275.933594 255.003906 275.148438 253.9375 C 274.226562 252.585938 273.230469 250.882812 272.589844 249.390625 C 270.886719 245.410156 270.03125 241.003906 268.183594 237.023438 C 267.332031 235.175781 265.835938 233.253906 264.628906 231.550781 C 263.277344 229.632812 261.785156 228.28125 260.71875 226.007812 C 260.363281 225.222656 259.867188 223.945312 260.433594 223.09375 C 260.578125 222.523438 260.859375 222.3125 261.429688 222.167969 C 262.355469 221.386719 264.984375 222.382812 265.910156 222.808594 C 268.539062 223.875 270.742188 224.867188 272.945312 226.363281 C 273.941406 227.070312 275.007812 228.421875 276.289062 228.777344 L 277.78125 228.777344 C 280.054688 229.273438 282.613281 228.921875 284.746094 229.558594 C 288.515625 230.765625 291.925781 232.542969 294.984375 234.464844 C 304.296875 240.363281 311.972656 248.75 317.164062 258.769531 C 318.015625 260.40625 318.371094 261.898438 319.152344 263.605469 C 320.648438 267.085938 322.496094 270.640625 323.988281 274.050781 C 325.480469 277.390625 326.902344 280.804688 329.035156 283.574219 C 330.101562 285.066406 334.367188 285.847656 336.285156 286.632812 C 337.707031 287.269531 339.914062 287.839844 341.191406 288.621094 C 343.609375 290.113281 346.027344 291.820312 348.300781 293.453125 C 349.4375 294.308594 352.992188 296.085938 353.207031 297.503906 Z M 353.207031 297.503906 " fill-opacity="1" fill-rule="nonzero"/><path fill="#4e505d" d="M 280.695312 235.742188 C 279.484375 235.742188 278.632812 235.886719 277.78125 236.097656 C 277.78125 236.097656 277.78125 236.167969 277.78125 236.242188 L 277.921875 236.242188 C 278.492188 237.378906 279.484375 238.160156 280.195312 239.152344 C 280.765625 240.292969 281.261719 241.429688 281.832031 242.566406 C 281.902344 242.496094 281.972656 242.421875 281.972656 242.421875 C 282.96875 241.710938 283.46875 240.574219 283.46875 238.871094 C 283.039062 238.371094 282.96875 237.875 282.613281 237.378906 C 282.1875 236.667969 281.261719 236.3125 280.695312 235.742188 Z M 280.695312 235.742188 " fill-opacity="1" fill-rule="nonzero"/><path fill="#99b000" d="M 204.773438 350.597656 L 231.5 350.597656 C 234.628906 350.597656 237.617188 349.957031 240.03125 348.820312 C 244.085938 346.972656 246.003906 344.484375 246.003906 341.214844 L 246.003906 334.390625 C 246.003906 331.761719 243.800781 329.273438 239.390625 327.570312 C 237.117188 326.714844 234.273438 326.21875 231.5 326.21875 L 220.269531 326.21875 C 216.503906 326.21875 214.726562 325.082031 214.226562 322.59375 C 214.15625 322.308594 214.15625 322.027344 214.15625 321.742188 L 214.15625 317.546875 C 214.15625 317.335938 214.15625 317.050781 214.226562 316.765625 C 214.726562 314.847656 215.71875 314.351562 218.988281 313.996094 L 246.359375 313.996094 L 246.359375 307.8125 L 220.339844 307.8125 C 216.574219 307.8125 214.582031 308.023438 212.804688 308.59375 C 207.332031 310.296875 204.914062 313 204.914062 317.761719 L 204.914062 323.164062 C 204.914062 327.355469 209.605469 330.910156 217.566406 331.761719 C 218.421875 331.832031 219.34375 331.832031 220.269531 331.832031 L 229.867188 331.832031 C 230.222656 331.832031 230.578125 331.832031 230.863281 331.90625 C 233.777344 332.1875 235.054688 332.6875 235.910156 333.753906 C 236.476562 334.320312 236.621094 334.820312 236.621094 335.457031 L 236.621094 340.859375 C 236.621094 341.5 236.195312 342.351562 235.339844 343.0625 C 234.488281 343.773438 233.136719 344.269531 231.359375 344.34375 C 231.003906 344.34375 230.789062 344.414062 230.433594 344.414062 L 204.773438 344.414062 Z M 204.773438 350.597656 " fill-opacity="1" fill-rule="nonzero"/><path fill="#99b000" d="M 303.871094 339.863281 C 303.871094 346.191406 308.632812 349.742188 318.160156 350.453125 C 319.082031 350.527344 319.9375 350.597656 320.859375 350.597656 L 345.03125 350.597656 L 345.03125 344.414062 L 320.648438 344.414062 C 315.246094 344.414062 313.183594 343.0625 313.183594 339.792969 L 313.183594 307.8125 L 303.871094 307.8125 Z M 303.871094 339.863281 " fill-opacity="1" fill-rule="nonzero"/><path fill="#99b000" d="M 251.902344 340.148438 L 251.902344 318.117188 C 251.902344 312.5 255.882812 309.089844 263.632812 308.023438 C 264.488281 307.953125 265.339844 307.882812 266.121094 307.882812 L 283.75 307.882812 C 284.675781 307.882812 285.457031 307.953125 286.382812 308.023438 C 294.128906 309.089844 298.039062 312.5 298.039062 318.117188 L 298.039062 340.148438 C 298.039062 344.699219 296.40625 347.113281 292.566406 348.75 L 301.667969 356.992188 L 290.933594 356.992188 L 283.539062 350.3125 L 276.074219 350.738281 L 266.121094 350.738281 C 264.488281 350.738281 262.636719 350.527344 260.71875 350.027344 C 254.816406 348.394531 251.902344 345.265625 251.902344 340.148438 Z M 261.925781 339.652344 C 261.925781 339.933594 262.070312 340.21875 262.140625 340.574219 C 262.636719 343.132812 265.054688 344.554688 268.75 344.554688 L 277.140625 344.554688 L 269.460938 337.589844 L 280.199219 337.589844 L 286.949219 343.703125 C 288.230469 342.992188 289.011719 341.996094 289.296875 340.71875 C 289.367188 340.433594 289.367188 340.078125 289.367188 339.792969 L 289.367188 318.683594 C 289.367188 318.402344 289.367188 318.117188 289.296875 317.832031 C 288.800781 315.414062 286.382812 314.066406 282.757812 314.066406 L 268.75 314.066406 C 264.628906 314.066406 261.925781 315.84375 261.925781 318.683594 Z M 261.925781 339.652344 " fill-opacity="1" fill-rule="nonzero"/><path fill="#99b000" d="M 349.296875 350.667969 L 350.648438 350.667969 L 350.648438 345.480469 L 352.421875 345.480469 L 352.421875 344.414062 L 347.445312 344.414062 L 347.445312 345.480469 L 349.296875 345.480469 Z M 359.605469 350.667969 L 360.882812 350.667969 L 360.882812 344.414062 L 358.964844 344.414062 L 357.398438 348.675781 L 355.695312 344.414062 L 353.84375 344.414062 L 353.84375 350.667969 L 355.054688 350.667969 L 355.054688 345.90625 L 355.125 345.90625 L 356.902344 350.667969 L 357.828125 350.667969 L 359.605469 345.90625 Z M 359.605469 350.667969 " fill-opacity="1" fill-rule="nonzero"/></svg>