<svg xmlns="http://www.w3.org/2000/svg" xmlns:xlink="http://www.w3.org/1999/xlink" width="500" zoomAndPan="magnify" viewBox="0 0 375 374.999991" height="500" preserveAspectRatio="xMidYMid meet" version="1.0"><path fill="#777bb3" d="M 56.25 0 L 318.75 0 C 320.59375 0 322.429688 0.0898438 324.261719 0.269531 C 326.097656 0.453125 327.917969 0.722656 329.722656 1.082031 C 331.53125 1.441406 333.316406 1.886719 335.078125 2.421875 C 336.839844 2.957031 338.574219 3.578125 340.277344 4.28125 C 341.976562 4.988281 343.640625 5.773438 345.265625 6.640625 C 346.890625 7.511719 348.46875 8.457031 350 9.480469 C 351.53125 10.503906 353.011719 11.597656 354.433594 12.769531 C 355.859375 13.9375 357.222656 15.171875 358.523438 16.476562 C 359.828125 17.777344 361.0625 19.140625 362.230469 20.566406 C 363.402344 21.988281 364.496094 23.46875 365.519531 25 C 366.542969 26.53125 367.488281 28.109375 368.359375 29.734375 C 369.226562 31.359375 370.011719 33.023438 370.71875 34.722656 C 371.421875 36.425781 372.042969 38.160156 372.578125 39.921875 C 373.113281 41.683594 373.558594 43.46875 373.917969 45.277344 C 374.277344 47.082031 374.546875 48.902344 374.730469 50.738281 C 374.910156 52.570312 375 54.40625 375 56.25 L 375 318.75 C 375 320.59375 374.910156 322.429688 374.730469 324.261719 C 374.546875 326.097656 374.277344 327.917969 373.917969 329.722656 C 373.558594 331.53125 373.113281 333.316406 372.578125 335.078125 C 372.042969 336.839844 371.421875 338.574219 370.71875 340.277344 C 370.011719 341.976562 369.226562 343.640625 368.359375 345.265625 C 367.488281 346.890625 366.542969 348.46875 365.519531 350 C 364.496094 351.53125 363.402344 353.011719 362.230469 354.433594 C 361.0625 355.859375 359.828125 357.222656 358.523438 358.523438 C 357.222656 359.828125 355.859375 361.0625 354.433594 362.230469 C 353.011719 363.402344 351.53125 364.496094 350 365.519531 C 348.46875 366.542969 346.890625 367.488281 345.265625 368.359375 C 343.640625 369.226562 341.976562 370.011719 340.277344 370.71875 C 338.574219 371.421875 336.839844 372.042969 335.078125 372.578125 C 333.316406 373.113281 331.53125 373.558594 329.722656 373.917969 C 327.917969 374.277344 326.097656 374.546875 324.261719 374.730469 C 322.429688 374.910156 320.59375 375 318.75 375 L 56.25 375 C 54.40625 375 52.570312 374.910156 50.738281 374.730469 C 48.902344 374.546875 47.082031 374.277344 45.277344 373.917969 C 43.46875 373.558594 41.683594 373.113281 39.921875 372.578125 C 38.160156 372.042969 36.425781 371.421875 34.722656 370.71875 C 33.023438 370.011719 31.359375 369.226562 29.734375 368.359375 C 28.109375 367.488281 26.53125 366.542969 25 365.519531 C 23.46875 364.496094 21.988281 363.402344 20.566406 362.230469 C 19.140625 361.0625 17.777344 359.828125 16.476562 358.523438 C 15.171875 357.222656 13.9375 355.859375 12.769531 354.433594 C 11.597656 353.011719 10.503906 351.53125 9.480469 350 C 8.457031 348.46875 7.511719 346.890625 6.640625 345.265625 C 5.773438 343.640625 4.988281 341.976562 4.28125 340.277344 C 3.578125 338.574219 2.957031 336.839844 2.421875 335.078125 C 1.886719 333.316406 1.441406 331.53125 1.082031 329.722656 C 0.722656 327.917969 0.453125 326.097656 0.269531 324.261719 C 0.0898438 322.429688 0 320.59375 0 318.75 L 0 56.25 C 0 54.40625 0.0898438 52.570312 0.269531 50.738281 C 0.453125 48.902344 0.722656 47.082031 1.082031 45.277344 C 1.441406 43.46875 1.886719 41.683594 2.421875 39.921875 C 2.957031 38.160156 3.578125 36.425781 4.28125 34.722656 C 4.988281 33.023438 5.773438 31.359375 6.640625 29.734375 C 7.511719 28.109375 8.457031 26.53125 9.480469 25 C 10.503906 23.46875 11.597656 21.988281 12.769531 20.566406 C 13.9375 19.140625 15.171875 17.777344 16.476562 16.476562 C 17.777344 15.171875 19.140625 13.9375 20.566406 12.769531 C 21.988281 11.597656 23.46875 10.503906 25 9.480469 C 26.53125 8.457031 28.109375 7.511719 29.734375 6.640625 C 31.359375 5.773438 33.023438 4.988281 34.722656 4.28125 C 36.425781 3.578125 38.160156 2.957031 39.921875 2.421875 C 41.683594 1.886719 43.46875 1.441406 45.277344 1.082031 C 47.082031 0.722656 48.902344 0.453125 50.738281 0.269531 C 52.570312 0.0898438 54.40625 0 56.25 0 Z M 56.25 0 " fill-opacity="1" fill-rule="nonzero"/><path stroke-linecap="butt" transform="matrix(0.732422, 0, 0, 0.732422, 0.0000045, 0)" fill-opacity="1" fill="#000000" fill-rule="nonzero" stroke-linejoin="miter" d="M 154.997338 202.000014 L 96.997334 202.000014 C 96.330667 201.962681 95.722667 202.128014 95.168 202.501347 C 94.608 202.869347 94.224 203.370681 94 204.000014 L 67.002665 344.997357 C 67.002665 348.000024 69.999999 348.000024 69.999999 348.000024 L 100.000001 348.000024 C 102.997334 348.000024 102.997334 346.000024 102.997334 346.000024 L 110.000002 310.997355 L 136.997337 310.997355 C 178.99734 310.997355 200.000008 282.997353 204.997341 258.000018 C 210.000009 232.99735 206.000008 202.000014 154.997338 202.000014 Z M 168.000006 256.000018 C 164.000005 274.997353 150.997338 282.997353 132.997336 282.997353 L 114.997335 282.997353 L 126.000003 230.000016 L 144.000004 230.000016 C 170.997339 230.000016 170.000006 240.000017 168.000006 256.000018 Z M 168.000006 256.000018 " stroke="#ffffff" stroke-width="6" stroke-opacity="1" stroke-miterlimit="4"/><path stroke-linecap="butt" transform="matrix(0.732422, 0, 0, 0.732422, 0.0000045, 0)" fill-opacity="1" fill="#000000" fill-rule="nonzero" stroke-linejoin="miter" d="M 274.997346 310.997355 C 270.997346 310.997355 272.000013 306.997355 272.000013 306.997355 L 284.000014 246.000017 C 284.000014 238.000017 290.000014 230.000016 266.000012 230.997349 L 248.000011 230.997349 L 232.997343 308.997355 C 232.997343 308.997355 232.997343 312.000022 228.997343 312.000022 L 200.000008 312.000022 C 196.997341 312.000022 196.997341 308.997355 196.997341 308.997355 L 224.997343 168.000012 C 224.997343 168.000012 224.997343 166.000012 228.997343 166.000012 L 258.997345 166.000012 C 262.000012 166.000012 260.997345 168.997345 260.997345 168.997345 L 254.000012 202.997347 L 280.000013 202.997347 C 316.000016 202.997347 324.99735 220.000015 322.000016 240.000017 L 308.997349 308.997355 C 308.997349 308.997355 308.997349 312.000022 304.000015 312.000022 Z M 274.997346 310.997355 " stroke="#ffffff" stroke-width="6" stroke-opacity="1" stroke-miterlimit="4"/><path stroke-linecap="butt" transform="matrix(0.732422, 0, 0, 0.732422, 175.048822, 0)" fill-opacity="1" fill="#000000" fill-rule="nonzero" stroke-linejoin="miter" d="M 155.000019 202.000014 L 97.000015 202.000014 C 96.333349 201.962681 95.720015 202.128014 95.165349 202.501347 C 94.610682 202.869347 94.221349 203.370681 93.997349 204.000014 L 67.000013 344.997357 C 67.000013 348.000024 69.997347 348.000024 69.997347 348.000024 L 99.997349 348.000024 C 103.000016 348.000024 103.000016 346.000024 103.000016 346.000024 L 109.99735 310.997355 L 137.000018 310.997355 C 179.000021 310.997355 199.997356 282.997353 205.000023 258.000018 C 209.997357 232.99735 205.997356 202.000014 155.000019 202.000014 Z M 167.997354 256.000018 C 163.997353 274.997353 151.000019 282.997353 133.000018 282.997353 L 115.000017 282.997353 L 125.997351 230.000016 L 143.997352 230.000016 C 171.000021 230.000016 169.997354 240.000017 167.997354 256.000018 Z M 167.997354 256.000018 " stroke="#ffffff" stroke-width="6" stroke-opacity="1" stroke-miterlimit="4"/></svg>