<svg xmlns="http://www.w3.org/2000/svg" xmlns:xlink="http://www.w3.org/1999/xlink" width="500" zoomAndPan="magnify" viewBox="0 0 375 374.999991" height="500" preserveAspectRatio="xMidYMid meet" version="1.0"><path fill="#70ad51" d="M 64.054688 328.042969 C 64.59375 328.472656 65.15625 328.867188 65.742188 329.226562 C 66.332031 329.585938 66.941406 329.902344 67.570312 330.183594 C 68.203125 330.460938 68.847656 330.699219 69.507812 330.894531 C 70.167969 331.089844 70.839844 331.242188 71.519531 331.351562 C 72.199219 331.460938 72.882812 331.527344 73.574219 331.546875 C 74.261719 331.566406 74.949219 331.542969 75.632812 331.476562 C 76.320312 331.40625 76.996094 331.296875 77.667969 331.140625 C 78.339844 330.984375 79 330.785156 79.644531 330.542969 C 80.289062 330.304688 80.917969 330.023438 81.527344 329.699219 C 82.132812 329.378906 82.71875 329.019531 83.28125 328.621094 C 83.84375 328.222656 84.378906 327.789062 84.886719 327.324219 C 85.394531 326.855469 85.867188 326.359375 86.308594 325.828125 C 86.75 325.300781 87.15625 324.746094 87.527344 324.164062 C 87.898438 323.585938 88.230469 322.980469 88.523438 322.359375 C 88.816406 321.734375 89.066406 321.09375 89.277344 320.4375 C 89.488281 319.78125 89.652344 319.113281 89.777344 318.4375 C 89.898438 317.757812 89.980469 317.074219 90.015625 316.386719 C 90.050781 315.699219 90.042969 315.011719 89.988281 314.324219 C 89.933594 313.636719 89.835938 312.957031 89.695312 312.285156 C 89.550781 311.609375 89.367188 310.945312 89.140625 310.296875 C 88.914062 309.644531 88.644531 309.011719 88.335938 308.398438 C 88.027344 307.78125 87.679688 307.1875 87.292969 306.617188 C 86.90625 306.046875 86.488281 305.503906 86.03125 304.988281 C 85.574219 304.46875 85.085938 303.984375 84.566406 303.53125 C 84.046875 303.078125 83.503906 302.660156 82.929688 302.277344 C 82.355469 301.894531 81.761719 301.550781 81.144531 301.246094 C 80.527344 300.941406 79.890625 300.675781 79.242188 300.453125 C 78.589844 300.226562 77.925781 300.046875 77.25 299.910156 C 76.574219 299.773438 75.894531 299.675781 75.207031 299.628906 C 74.519531 299.578125 73.832031 299.574219 73.144531 299.613281 C 72.457031 299.652344 71.773438 299.734375 71.097656 299.863281 C 70.417969 299.988281 69.753906 300.160156 69.097656 300.371094 C 68.445312 300.585938 67.804688 300.839844 67.183594 301.136719 C 66.558594 301.433594 65.960938 301.769531 65.382812 302.140625 C 64.800781 302.515625 64.25 302.925781 63.722656 303.371094 C 63.199219 303.816406 62.703125 304.292969 62.238281 304.800781 C 61.773438 305.3125 61.34375 305.847656 60.949219 306.414062 C 60.554688 306.976562 60.199219 307.566406 59.878906 308.175781 C 59.5625 308.785156 59.285156 309.414062 59.046875 310.0625 C 58.808594 310.710938 58.613281 311.367188 58.460938 312.039062 C 58.308594 312.710938 58.203125 313.390625 58.136719 314.078125 C 58.074219 314.761719 58.054688 315.449219 58.078125 316.140625 C 58.101562 316.828125 58.171875 317.511719 58.285156 318.191406 C 58.398438 318.871094 58.554688 319.542969 58.753906 320.199219 C 58.953125 320.859375 59.191406 321.503906 59.476562 322.132812 C 59.757812 322.761719 60.082031 323.367188 60.441406 323.953125 C 60.804688 324.542969 61.203125 325.101562 61.636719 325.636719 C 62.070312 326.171875 62.535156 326.675781 63.035156 327.152344 L 59.917969 324.410156 C 23.109375 290.179688 0 241.371094 0 187.242188 C 0 84 84 0 187.265625 0 C 239.765625 0 287.226562 21.761719 321.269531 56.671875 C 329.308594 45.683594 335.949219 33.90625 341.191406 21.339844 C 365.050781 93.035156 379.078125 153.292969 373.945312 200.753906 C 367.007812 297.714844 285.960938 374.542969 187.265625 374.542969 C 181.808594 374.546875 176.363281 374.3125 170.925781 373.835938 C 165.488281 373.359375 160.082031 372.648438 154.707031 371.699219 C 149.335938 370.75 144.011719 369.566406 138.742188 368.148438 C 133.472656 366.730469 128.273438 365.085938 123.148438 363.210938 C 118.023438 361.335938 112.988281 359.242188 108.046875 356.925781 C 103.105469 354.609375 98.277344 352.082031 93.558594 349.339844 C 88.839844 346.601562 84.25 343.660156 79.789062 340.515625 C 75.328125 337.371094 71.011719 334.039062 66.84375 330.515625 L 64.054688 328.054688 Z M 340.382812 269.660156 C 387.375 207.128906 361.183594 106.007812 339.386719 41.378906 C 319.96875 81.84375 272.144531 112.792969 230.847656 122.589844 C 192.140625 131.824219 157.886719 124.253906 122.0625 138.035156 C 40.382812 169.441406 41.671875 266.847656 86.671875 288.738281 C 86.695312 288.738281 89.367188 290.191406 89.332031 290.144531 C 89.332031 290.121094 155.472656 276.996094 192.035156 263.496094 C 245.472656 243.761719 304.136719 195.117188 323.4375 138.609375 C 313.160156 197.378906 262.710938 253.921875 212.027344 279.890625 C 185.050781 293.742188 164.074219 296.824219 119.683594 312.1875 C 114.246094 314.039062 109.980469 315.867188 109.980469 315.867188 C 121.230469 313.992188 132.445312 313.382812 132.445312 313.382812 C 195.644531 310.394531 294.246094 331.148438 340.394531 269.671875 Z M 340.382812 269.660156 " fill-opacity="1" fill-rule="evenodd"/></svg>