<svg xmlns="http://www.w3.org/2000/svg" xmlns:xlink="http://www.w3.org/1999/xlink" width="500" zoomAndPan="magnify" viewBox="0 0 375 374.999991" height="500" preserveAspectRatio="xMidYMid meet" version="1.0"><defs><clipPath id="523da64795"><path d="M 122 37.5 L 252 37.5 L 252 328.5 L 122 328.5 Z M 122 37.5 " clip-rule="nonzero"/></clipPath></defs><path fill="#38b6ff" d="M 118.308594 274.863281 C 116.238281 274.863281 114.195312 274.167969 112.566406 272.871094 L 7.691406 190.359375 C 5.433594 188.585938 4.144531 185.929688 4.144531 183.0625 C 4.144531 180.199219 5.433594 177.542969 7.683594 175.753906 L 112.566406 93.257812 C 114.195312 91.960938 116.238281 91.265625 118.308594 91.265625 C 121.171875 91.265625 123.847656 92.546875 125.601562 94.808594 C 127.136719 96.753906 127.835938 99.191406 127.535156 101.644531 C 127.25 104.113281 126 106.3125 124.054688 107.84375 L 28.472656 183.066406 L 124.054688 258.265625 C 126 259.816406 127.25 262.015625 127.535156 264.46875 C 127.835938 266.9375 127.136719 269.359375 125.601562 271.320312 C 123.847656 273.566406 121.171875 274.863281 118.308594 274.863281 " fill-opacity="1" fill-rule="nonzero"/><path fill="#0652e9" d="M 118.308594 87.308594 C 115.351562 87.308594 112.457031 88.304688 110.128906 90.140625 L 5.242188 172.652344 C 2.023438 175.199219 0.1875 178.980469 0.1875 183.0625 C 0.1875 187.148438 2.035156 190.945312 5.242188 193.476562 L 110.128906 275.988281 C 112.4375 277.808594 115.351562 278.820312 118.308594 278.820312 C 122.40625 278.820312 126.203125 276.96875 128.71875 273.757812 C 130.917969 270.988281 131.886719 267.523438 131.472656 264.011719 C 131.046875 260.5 129.289062 257.351562 126.503906 255.167969 L 34.863281 183.0625 L 126.503906 110.960938 C 129.289062 108.761719 131.046875 105.628906 131.472656 102.117188 C 131.886719 98.605469 130.917969 95.140625 128.71875 92.355469 C 126.203125 89.144531 122.390625 87.308594 118.308594 87.308594 Z M 118.308594 95.21875 C 119.890625 95.21875 121.457031 95.914062 122.503906 97.246094 C 124.335938 99.570312 123.925781 102.925781 121.617188 104.746094 L 22.0625 183.066406 L 121.617188 261.382812 C 123.925781 263.203125 124.335938 266.558594 122.503906 268.867188 C 121.457031 270.214844 119.890625 270.910156 118.308594 270.910156 C 117.15625 270.910156 116 270.546875 115.019531 269.769531 L 10.132812 187.257812 C 8.851562 186.246094 8.101562 184.695312 8.101562 183.066406 C 8.101562 181.417969 8.851562 179.882812 10.132812 178.871094 L 115.019531 96.359375 C 115.984375 95.582031 117.15625 95.21875 118.308594 95.21875 " fill-opacity="1" fill-rule="nonzero"/><path fill="#38b6ff" d="M 256.691406 274.863281 C 253.828125 274.863281 251.167969 273.566406 249.378906 271.320312 C 246.214844 267.300781 246.914062 261.449219 250.945312 258.265625 L 346.546875 183.066406 L 250.945312 107.84375 C 246.914062 104.679688 246.214844 98.828125 249.378906 94.808594 C 251.167969 92.546875 253.828125 91.265625 256.691406 91.265625 C 258.761719 91.265625 260.804688 91.960938 262.433594 93.257812 L 367.320312 175.753906 C 369.566406 177.542969 370.847656 180.199219 370.847656 183.0625 C 370.847656 185.929688 369.566406 188.585938 367.304688 190.359375 L 262.433594 272.871094 C 260.804688 274.167969 258.761719 274.863281 256.691406 274.863281 " fill-opacity="1" fill-rule="nonzero"/><path fill="#0652e9" d="M 256.691406 87.308594 C 252.609375 87.308594 248.8125 89.144531 246.28125 92.355469 C 241.753906 98.097656 242.75 106.4375 248.496094 110.960938 L 340.136719 183.066406 L 248.496094 255.167969 C 242.75 259.675781 241.753906 268.03125 246.28125 273.757812 C 248.8125 276.96875 252.609375 278.820312 256.691406 278.820312 C 259.648438 278.820312 262.542969 277.808594 264.871094 275.988281 L 369.757812 193.476562 C 372.96875 190.945312 374.804688 187.148438 374.804688 183.066406 C 374.804688 178.980469 372.96875 175.199219 369.773438 172.652344 L 264.886719 90.140625 C 262.5625 88.304688 259.648438 87.308594 256.691406 87.308594 Z M 256.691406 95.21875 C 257.84375 95.21875 259.015625 95.582031 259.980469 96.359375 L 364.867188 178.871094 C 366.148438 179.882812 366.890625 181.417969 366.890625 183.066406 C 366.890625 184.695312 366.148438 186.246094 364.867188 187.257812 L 259.980469 269.769531 C 259.015625 270.546875 257.84375 270.910156 256.691406 270.910156 C 255.109375 270.910156 253.542969 270.214844 252.496094 268.867188 C 250.679688 266.558594 251.074219 263.203125 253.382812 261.382812 L 352.9375 183.0625 L 253.382812 104.746094 C 251.074219 102.925781 250.679688 99.570312 252.496094 97.246094 C 253.542969 95.914062 255.125 95.21875 256.691406 95.21875 " fill-opacity="1" fill-rule="nonzero"/><path fill="#38b6ff" d="M 135.382812 324.65625 C 134.226562 324.65625 133.101562 324.4375 132.027344 324.023438 C 129.71875 323.121094 127.882812 321.382812 126.886719 319.121094 C 125.871094 316.839844 125.824219 314.324219 126.710938 312.015625 L 229.144531 47.40625 C 230.519531 43.859375 234 41.472656 237.800781 41.472656 C 238.953125 41.472656 240.09375 41.691406 241.167969 42.105469 C 245.929688 43.957031 248.320312 49.351562 246.46875 54.128906 L 144.050781 318.722656 C 142.675781 322.269531 139.179688 324.65625 135.382812 324.65625 " fill-opacity="1" fill-rule="nonzero"/><g clip-path="url(#523da64795)"><path fill="#0652e9" d="M 237.800781 37.515625 C 232.371094 37.515625 227.402344 40.933594 225.457031 45.980469 L 123.023438 310.574219 C 121.757812 313.882812 121.835938 317.472656 123.261719 320.71875 C 124.703125 323.945312 127.296875 326.445312 130.601562 327.710938 C 132.136719 328.3125 133.734375 328.613281 135.382812 328.613281 C 140.808594 328.613281 145.777344 325.210938 147.738281 320.148438 L 250.15625 55.554688 C 252.796875 48.734375 249.398438 41.042969 242.578125 38.417969 C 241.058594 37.816406 239.445312 37.515625 237.800781 37.515625 Z M 237.800781 45.425781 C 238.449219 45.425781 239.097656 45.554688 239.730469 45.789062 C 242.480469 46.851562 243.84375 49.9375 242.78125 52.6875 L 140.351562 317.285156 C 139.542969 319.40625 137.519531 320.703125 135.382812 320.703125 C 134.734375 320.703125 134.085938 320.589844 133.453125 320.339844 C 130.699219 319.277344 129.335938 316.175781 130.414062 313.441406 L 232.832031 48.84375 C 233.652344 46.722656 235.664062 45.425781 237.800781 45.425781 " fill-opacity="1" fill-rule="nonzero"/></g></svg>